<svg width="21" height="21" viewBox="0 0 21 21" fill="none" xmlns="http://www.w3.org/2000/svg">
<path d="M6.5 10.258H12.5C13.2072 10.258 13.8855 10.539 14.3856 11.0391C14.8857 11.5392 15.1667 12.2174 15.1667 12.9247C15.1667 13.6319 14.8857 14.3102 14.3856 14.8103C13.8855 15.3104 13.2072 15.5913 12.5 15.5913H7.16667C6.98986 15.5913 6.82029 15.5211 6.69526 15.3961C6.57024 15.2711 6.5 15.1015 6.5 14.9247V5.59135C6.5 5.41454 6.57024 5.24497 6.69526 5.11994C6.82029 4.99492 6.98986 4.92468 7.16667 4.92468H11.8333C12.5406 4.92468 13.2189 5.20563 13.719 5.70573C14.219 6.20583 14.5 6.88411 14.5 7.59135C14.5 8.29859 14.219 8.97687 13.719 9.47697C13.2189 9.97706 12.5406 10.258 11.8333 10.258" stroke="#040510" stroke-linecap="round" stroke-linejoin="round"/>
</svg>
