<svg width="17" height="17" viewBox="0 0 17 17" fill="none" xmlns="http://www.w3.org/2000/svg">
<path d="M7.16675 7.78894V11.7889" stroke="#F3F3F8" stroke-linecap="round" stroke-linejoin="round"/>
<path d="M9.83325 7.78894V11.7889" stroke="#F3F3F8" stroke-linecap="round" stroke-linejoin="round"/>
<path d="M13.1666 4.45557V13.7889C13.1666 14.1425 13.0261 14.4817 12.7761 14.7317C12.526 14.9818 12.1869 15.1222 11.8333 15.1222H5.16659C4.81296 15.1222 4.47382 14.9818 4.22378 14.7317C3.97373 14.4817 3.83325 14.1425 3.83325 13.7889V4.45557" stroke="#F3F3F8" stroke-linecap="round" stroke-linejoin="round"/>
<path d="M2.5 4.45557H14.5" stroke="#F3F3F8" stroke-linecap="round" stroke-linejoin="round"/>
<path d="M5.83325 4.45561V3.12227C5.83325 2.76865 5.97373 2.42951 6.22378 2.17946C6.47383 1.92942 6.81296 1.78894 7.16659 1.78894H9.83325C10.1869 1.78894 10.526 1.92942 10.7761 2.17946C11.0261 2.42951 11.1666 2.76865 11.1666 3.12227V4.45561" stroke="#F3F3F8" stroke-linecap="round" stroke-linejoin="round"/>
</svg>
