<svg width="17" height="17" viewBox="0 0 17 17" fill="none" xmlns="http://www.w3.org/2000/svg">
<path d="M13.8596 3.03292C12.8104 2.54196 11.7003 2.19312 10.5588 1.99561C10.4166 2.25267 10.2505 2.59842 10.1359 2.87348C8.90515 2.68842 7.68571 2.68842 6.47759 2.87348C6.36309 2.59848 6.19321 2.25267 6.04971 1.99561C4.90708 2.19321 3.79606 2.54294 2.74627 3.03548C0.657273 6.19229 0.0909605 9.27061 0.374085 12.3054C1.75965 13.34 3.1024 13.9686 4.42252 14.3799C4.75061 13.9287 5.04063 13.4511 5.28959 12.9519C4.8156 12.7714 4.35867 12.549 3.92421 12.2874C4.03854 12.2026 4.15018 12.1143 4.25896 12.0225C6.89159 13.2539 9.75209 13.2539 12.3533 12.0225C12.4626 12.1137 12.5742 12.202 12.688 12.2874C12.2529 12.5497 11.7951 12.7725 11.3201 12.9532C11.5705 13.4544 11.86 13.9325 12.1872 14.3812C13.5086 13.9699 14.8526 13.3414 16.2381 12.3054C16.5704 8.78736 15.6706 5.73729 13.8596 3.03292ZM5.64827 10.439C4.85796 10.439 4.20984 9.70123 4.20984 8.80279C4.20984 7.90436 4.84415 7.16529 5.64827 7.16529C6.45246 7.16529 7.10052 7.90304 7.08671 8.80279C7.08796 9.70123 6.45246 10.439 5.64827 10.439ZM10.964 10.439C10.1736 10.439 9.52559 9.70123 9.52559 8.80279C9.52559 7.90436 10.1598 7.16529 10.964 7.16529C11.7681 7.16529 12.4162 7.90304 12.4024 8.80279C12.4024 9.70123 11.7681 10.439 10.964 10.439Z" fill="#F3F3F8"/>
</svg>
