<svg width="17" height="17" viewBox="0 0 17 17" fill="none" xmlns="http://www.w3.org/2000/svg">
<g clip-path="url(#clip0_201_2704)">
<path d="M9.43341 1.35095H4.50008C4.14646 1.35095 3.80732 1.49143 3.55727 1.74148C3.30722 1.99152 3.16675 2.33066 3.16675 2.68429V13.351C3.16675 13.7046 3.30722 14.0437 3.55727 14.2938C3.80732 14.5438 4.14646 14.6843 4.50008 14.6843H12.5001C12.8537 14.6843 13.1928 14.5438 13.4429 14.2938C13.6929 14.0437 13.8334 13.7046 13.8334 13.351V8.41762" stroke="#F3F3F8" stroke-linecap="round" stroke-linejoin="round"/>
<path d="M14.7521 3.76826C15.0176 3.50269 15.1668 3.1425 15.1668 2.76693C15.1668 2.39136 15.0176 2.03117 14.7521 1.7656C14.4865 1.50003 14.1263 1.35083 13.7507 1.35083C13.3752 1.35083 13.015 1.50003 12.7494 1.7656L9.4094 5.10693C9.2509 5.26534 9.13488 5.46115 9.07207 5.67626L8.51407 7.5896C8.49733 7.64696 8.49633 7.70777 8.51116 7.76566C8.52599 7.82354 8.55611 7.87638 8.59836 7.91863C8.64062 7.96088 8.69345 7.991 8.75134 8.00583C8.80922 8.02066 8.87003 8.01966 8.9274 8.00293L10.8407 7.44493C11.0558 7.38211 11.2517 7.2661 11.4101 7.1076L14.7521 3.76826Z" stroke="#F3F3F8" stroke-linecap="round" stroke-linejoin="round"/>
</g>
<defs>
<clipPath id="clip0_201_2704">
<rect width="16" height="16" fill="white" transform="translate(0.500122 0.0175781)"/>
</clipPath>
</defs>
</svg>
