<svg width="37" height="21" viewBox="0 0 37 21" fill="none" xmlns="http://www.w3.org/2000/svg">
<path d="M12.5 12.9248L14.1907 8.03945C14.2369 7.90579 14.3236 7.78986 14.4388 7.70781C14.554 7.62576 14.6919 7.58167 14.8333 7.58167C14.9748 7.58167 15.1127 7.62576 15.2279 7.70781C15.343 7.78986 15.4298 7.90579 15.476 8.03945L17.1667 12.9248" stroke="#040510" stroke-linecap="round" stroke-linejoin="round"/>
<path d="M12.9647 11.5914H16.7021" stroke="#040510" stroke-linecap="round" stroke-linejoin="round"/>
<path d="M3.83337 12.9247L6.52604 6.46471C6.55136 6.40398 6.59408 6.3521 6.64883 6.31561C6.70358 6.27912 6.76791 6.25964 6.83371 6.25964C6.8995 6.25964 6.96383 6.27912 7.01858 6.31561C7.07333 6.3521 7.11606 6.40398 7.14137 6.46471L9.83337 12.9247" stroke="#040510" stroke-linecap="round" stroke-linejoin="round"/>
<path d="M4.70264 10.9247H8.96397" stroke="#040510" stroke-linecap="round" stroke-linejoin="round"/>
<path fill-rule="evenodd" clip-rule="evenodd" d="M24.676 8.83403C24.7885 8.72167 24.941 8.65856 25.1 8.65856C25.259 8.65856 25.4115 8.72167 25.524 8.83403L28.5 11.81L31.476 8.83403C31.5309 8.77508 31.5971 8.7278 31.6707 8.69501C31.7443 8.66221 31.8238 8.64458 31.9043 8.64316C31.9849 8.64174 32.0649 8.65656 32.1396 8.68673C32.2143 8.71691 32.2822 8.76183 32.3392 8.8188C32.3962 8.87578 32.4411 8.94364 32.4713 9.01835C32.5014 9.09307 32.5163 9.17309 32.5148 9.25365C32.5134 9.33421 32.4958 9.41366 32.463 9.48726C32.4302 9.56086 32.3829 9.6271 32.324 9.68203L28.924 13.082C28.8115 13.1944 28.659 13.2575 28.5 13.2575C28.341 13.2575 28.1885 13.1944 28.076 13.082L24.676 9.68203C24.5636 9.56953 24.5005 9.41703 24.5005 9.25803C24.5005 9.09903 24.5636 8.94653 24.676 8.83403Z" fill="#040510"/>
</svg>
