<svg width="16" height="16" viewBox="0 0 16 16" fill="none" xmlns="http://www.w3.org/2000/svg">
<path d="M8.00004 0.261536C3.58232 0.261536 0 3.84319 0 8.26158C0 11.7962 2.29226 14.795 5.47092 15.8528C5.87074 15.9269 6.01752 15.6793 6.01752 15.468C6.01752 15.2772 6.0101 14.647 6.00666 13.9785C3.78104 14.4625 3.31141 13.0346 3.31141 13.0346C2.94749 12.1099 2.42314 11.864 2.42314 11.864C1.6973 11.3675 2.47786 11.3777 2.47786 11.3777C3.2812 11.4341 3.7042 12.2021 3.7042 12.2021C4.41772 13.4252 5.57571 13.0716 6.03223 12.8672C6.10403 12.3501 6.31136 11.9972 6.54014 11.7974C4.76323 11.5951 2.89529 10.9091 2.89529 7.84375C2.89529 6.97032 3.20781 6.25667 3.71957 5.69642C3.6365 5.49492 3.36267 4.68125 3.79707 3.5793C3.79707 3.5793 4.46886 3.36429 5.99765 4.39933C6.63579 4.22208 7.32017 4.13319 8.00004 4.13014C8.67992 4.13319 9.36483 4.22208 10.0042 4.39933C11.5311 3.36429 12.202 3.5793 12.202 3.5793C12.6374 4.68125 12.3635 5.49492 12.2804 5.69642C12.7933 6.25667 13.1037 6.97032 13.1037 7.84375C13.1037 10.9164 11.2322 11.593 9.45081 11.791C9.73775 12.0393 9.99343 12.5262 9.99343 13.2725C9.99343 14.343 9.98416 15.2045 9.98416 15.468C9.98416 15.6808 10.1282 15.9303 10.5337 15.8517C13.7106 14.7927 16 11.795 16 8.26158C16 3.84319 12.4182 0.261536 8.00004 0.261536ZM2.99628 11.6578C2.97866 11.6975 2.91613 11.7094 2.85916 11.6821C2.80114 11.656 2.76855 11.6019 2.78736 11.562C2.80458 11.5211 2.86724 11.5097 2.92514 11.5371C2.98329 11.5632 3.01641 11.6179 2.99628 11.6578ZM3.38979 12.0089C3.35164 12.0443 3.27705 12.0278 3.22645 11.9719C3.17412 11.9162 3.16431 11.8416 3.203 11.8057C3.24234 11.7703 3.31468 11.7869 3.36714 11.8426C3.41947 11.8991 3.42967 11.9731 3.38979 12.0089ZM3.65976 12.4581C3.61074 12.4922 3.53059 12.4603 3.48104 12.3891C3.43203 12.318 3.43203 12.2327 3.4821 12.1985C3.53178 12.1643 3.61074 12.1951 3.66095 12.2657C3.70983 12.338 3.70983 12.4233 3.65976 12.4581ZM4.11632 12.9785C4.07247 13.0268 3.97908 13.0138 3.91072 12.9478C3.84077 12.8833 3.8213 12.7918 3.86528 12.7434C3.90966 12.6949 4.00359 12.7086 4.07247 12.774C4.14189 12.8384 4.16309 12.9306 4.11632 12.9785ZM4.7064 13.1541C4.68705 13.2168 4.5971 13.2452 4.50649 13.2186C4.416 13.1912 4.35679 13.1178 4.37507 13.0545C4.39388 12.9914 4.48423 12.9617 4.57551 12.9902C4.66586 13.0175 4.72521 13.0904 4.7064 13.1541ZM5.37792 13.2286C5.38017 13.2946 5.30334 13.3493 5.20822 13.3505C5.11257 13.3526 5.0352 13.2992 5.03414 13.2343C5.03414 13.1677 5.10926 13.1135 5.20491 13.1119C5.30002 13.11 5.37792 13.163 5.37792 13.2286ZM6.03762 13.2033C6.04901 13.2677 5.98291 13.3338 5.88845 13.3514C5.79558 13.3684 5.7096 13.3286 5.69781 13.2648C5.68629 13.1988 5.75359 13.1327 5.84632 13.1156C5.94091 13.0992 6.02556 13.1379 6.03762 13.2033Z" fill="#F3F3F8"/>
</svg>
