<svg width="51" height="16" viewBox="0 0 51 16" fill="none" xmlns="http://www.w3.org/2000/svg">
<path d="M7.59911 9.82388V7.32288H12.813V13.2553C12.0836 13.872 11.2484 14.3517 10.3479 14.671C9.40847 15.014 8.33657 15.1852 7.13221 15.1845C5.65855 15.1845 4.39406 14.88 3.33876 14.2711C2.30125 13.6829 1.45746 12.8058 0.910308 11.7466C0.346645 10.6726 0.0648132 9.4374 0.0648132 8.04107C0.0554843 7.06685 0.227506 6.09938 0.57211 5.18801C0.895979 4.33433 1.3854 3.55298 2.01227 2.88884C2.63779 2.22953 3.39466 1.70855 4.23404 1.35951C5.13096 0.98966 6.09342 0.804768 7.06363 0.815938C8.2943 0.815938 9.37653 1.04501 10.3103 1.50315C11.2215 1.94386 12.0091 2.60351 12.6026 3.42303L10.5358 5.41332C10.1374 4.91238 9.65715 4.4823 9.11537 4.14123C8.58866 3.81264 7.94639 3.64835 7.18858 3.64835C6.3625 3.64835 5.65573 3.84675 5.06826 4.24356C4.47995 4.64109 4.01308 5.19344 3.71923 5.83955C3.40107 6.53111 3.24063 7.28467 3.24951 8.04576C3.24951 8.92199 3.42894 9.68494 3.78781 10.3346C4.12317 10.9613 4.62509 11.4834 5.2383 11.8433C5.86644 12.2043 6.58056 12.3889 7.30507 12.3775C7.80568 12.3832 8.30455 12.3174 8.78656 12.1822C9.2239 12.0568 9.63112 11.8437 9.98341 11.556V9.82388H7.59911Z" fill="#040510"/>
<path d="M14.1638 14.8559V1.16425H17.0855V14.8559H14.1638Z" fill="#040510"/>
<path d="M18.4371 10.0323C18.4267 9.12864 18.6503 8.23765 19.0863 7.44586C19.5076 6.67722 20.1276 6.03561 20.8815 5.58794C21.6456 5.1298 22.5349 4.90073 23.5495 4.90073C24.5641 4.90073 25.4535 5.1298 26.2175 5.58794C26.9698 6.03442 27.5867 6.67655 28.0025 7.44586C28.4221 8.24352 28.6413 9.13115 28.6413 10.0323C28.6413 10.9334 28.4221 11.8211 28.0025 12.6187C27.5852 13.3897 26.9689 14.0348 26.2175 14.487C25.4528 14.952 24.5635 15.1845 23.5495 15.1845C22.5356 15.1845 21.6462 14.952 20.8815 14.487C20.1286 14.0335 19.5092 13.389 19.0863 12.6187C18.6503 11.827 18.4267 10.936 18.4371 10.0323ZM23.5495 12.6187C24.0506 12.6187 24.4664 12.4954 24.7971 12.2488C25.1309 11.9997 25.3934 11.6672 25.5581 11.2847C25.733 10.8904 25.8227 10.4636 25.8211 10.0323C25.8233 9.60425 25.7336 9.18072 25.5581 8.79025C25.3909 8.41185 25.1288 8.08298 24.7971 7.83547C24.4658 7.5895 24.0499 7.46651 23.5495 7.46651C23.105 7.4538 22.668 7.58304 22.302 7.83547C21.9604 8.07821 21.6904 8.40831 21.5204 8.79118C21.3446 9.1816 21.2545 9.60513 21.2564 10.0332C21.2551 10.4646 21.3451 10.8914 21.5204 11.2856C21.688 11.6723 21.9583 12.0057 22.302 12.2498C22.6678 12.5026 23.105 12.6318 23.5495 12.6187Z" fill="#040510"/>
<path d="M29.9924 14.487V1.16425H32.9141V5.94752C33.2229 5.63614 33.6021 5.40364 34.0198 5.26969C34.4656 5.10926 34.9355 5.02608 35.4092 5.02372C36.3161 5.02372 37.0836 5.24622 37.7118 5.69122C38.3433 6.13817 38.8415 6.74823 39.1529 7.45619C39.4896 8.21527 39.659 9.03778 39.6499 9.86802C39.6499 10.9082 39.4335 11.8286 39.0007 12.6291C38.568 13.4285 37.9079 14.0818 37.104 14.5067C36.2716 14.9586 35.2674 15.1842 34.0912 15.1836C33.318 15.1874 32.5464 15.1119 31.7886 14.9583C31.1807 14.8387 30.5808 14.6813 29.9924 14.487ZM32.9141 9.53943V12.5164C33.0936 12.5754 33.2765 12.6234 33.4618 12.6601C33.7298 12.7059 34.0016 12.7263 34.2735 12.7211C35.0306 12.7211 35.6256 12.4679 36.0584 11.9616C36.4912 11.4552 36.7079 10.7915 36.7085 9.97035C36.7092 9.57915 36.6438 9.19065 36.515 8.82124C36.3972 8.46815 36.1874 8.15282 35.9071 7.90777C35.6291 7.66805 35.2671 7.5482 34.8211 7.5482C34.1717 7.5482 33.6916 7.7297 33.381 8.09271C33.0703 8.45572 32.9147 8.9389 32.9141 9.54225V9.53943Z" fill="#040510"/>
<path d="M49.2177 11.9409L50.4146 13.8092C50.2793 13.9049 50.0394 14.0614 49.6949 14.2786C49.264 14.5363 48.8043 14.7427 48.3252 14.8935C47.7566 15.085 47.0601 15.1808 46.2359 15.1808C45.1537 15.1808 44.2202 14.9617 43.4355 14.5236C42.6682 14.1036 42.0406 13.4685 41.6299 12.6967C41.2109 11.9175 41.0014 11.0212 41.0014 10.0079C40.9949 9.13296 41.1928 8.26858 41.5791 7.48342C41.9559 6.71384 42.539 6.06384 43.2635 5.60579C44.0001 5.13325 44.8825 4.89729 45.9109 4.89792C46.9393 4.89855 47.8017 5.1345 48.4981 5.60579C49.203 6.08922 49.7525 6.76654 50.0801 7.55571C50.4383 8.38375 50.6175 9.33821 50.6175 10.4191V10.912H43.8413C43.8544 11.4189 44.0846 11.8705 44.5318 12.2667C44.979 12.6629 45.5808 12.8613 46.3374 12.8619C47.0946 12.8619 47.7099 12.7492 48.1834 12.5239C48.5457 12.3626 48.8921 12.1674 49.2177 11.9409ZM43.8413 9.03059H47.8583C47.8546 8.74031 47.7815 8.45513 47.6451 8.1988C47.4951 7.90964 47.2711 7.66539 46.9959 7.49093C46.706 7.29941 46.3374 7.20365 45.8902 7.20365C45.4947 7.18983 45.1035 7.28952 44.7629 7.49093C44.4763 7.66419 44.2389 7.90788 44.0733 8.1988C43.9264 8.45043 43.8465 8.73553 43.8413 9.02684V9.03059Z" fill="#040510"/>
</svg>
