<svg width="17" height="16" viewBox="0 0 17 16" fill="none" xmlns="http://www.w3.org/2000/svg">
<path d="M14.7047 0.460571H2.02326C1.41578 0.460571 0.924561 0.94016 0.924561 1.53311V14.2669C0.924561 14.8598 1.41578 15.3424 2.02326 15.3424H14.7047C15.3122 15.3424 15.8064 14.8598 15.8064 14.2698V1.53311C15.8064 0.94016 15.3122 0.460571 14.7047 0.460571ZM5.33968 13.142H3.13067V6.03833H5.33968V13.142ZM4.23517 5.07044C3.52597 5.07044 2.95337 4.49783 2.95337 3.79153C2.95337 3.08522 3.52597 2.51263 4.23517 2.51263C4.94148 2.51263 5.51408 3.08522 5.51408 3.79153C5.51408 4.49493 4.94148 5.07044 4.23517 5.07044ZM13.606 13.142H11.4V9.68897C11.4 8.86649 11.3854 7.80554 10.2518 7.80554C9.10372 7.80554 8.92932 8.70367 8.92932 9.63087V13.142H6.72613V6.03833H8.84213V7.00913H8.8712C9.16477 6.45107 9.88561 5.86103 10.9581 5.86103C13.1933 5.86103 13.606 7.33177 13.606 9.24434V13.142Z" fill="#040510"/>
</svg>
