<svg width="17" height="17" viewBox="0 0 17 17" fill="none" xmlns="http://www.w3.org/2000/svg">
<path fill-rule="evenodd" clip-rule="evenodd" d="M11 1.75806H14.5C14.6326 1.75806 14.7598 1.81073 14.8536 1.9045C14.9473 1.99827 15 2.12545 15 2.25806V5.75806C15 5.89067 14.9473 6.01784 14.8536 6.11161C14.7598 6.20538 14.6326 6.25806 14.5 6.25806C14.3674 6.25806 14.2402 6.20538 14.1464 6.11161C14.0527 6.01784 14 5.89067 14 5.75806V3.46472L5.85333 11.6114C5.75855 11.6997 5.63319 11.7478 5.50365 11.7455C5.37412 11.7432 5.25053 11.6907 5.15892 11.5991C5.06731 11.5075 5.01484 11.3839 5.01255 11.2544C5.01026 11.1249 5.05835 10.9995 5.14667 10.9047L13.2933 2.75806H11C10.8674 2.75806 10.7402 2.70538 10.6464 2.61161C10.5527 2.51784 10.5 2.39066 10.5 2.25806C10.5 2.12545 10.5527 1.99827 10.6464 1.9045C10.7402 1.81073 10.8674 1.75806 11 1.75806ZM4 4.75806C3.73478 4.75806 3.48043 4.86341 3.29289 5.05095C3.10536 5.23849 3 5.49284 3 5.75806V12.7581C3 13.0233 3.10536 13.2776 3.29289 13.4652C3.48043 13.6527 3.73478 13.7581 4 13.7581H11C11.2652 13.7581 11.5196 13.6527 11.7071 13.4652C11.8946 13.2776 12 13.0233 12 12.7581V7.25806C12 7.12545 12.0527 6.99827 12.1464 6.9045C12.2402 6.81074 12.3674 6.75806 12.5 6.75806C12.6326 6.75806 12.7598 6.81074 12.8536 6.9045C12.9473 6.99827 13 7.12545 13 7.25806V12.7581C13 13.2885 12.7893 13.7972 12.4142 14.1723C12.0391 14.5473 11.5304 14.7581 11 14.7581H4C3.46957 14.7581 2.96086 14.5473 2.58579 14.1723C2.21071 13.7972 2 13.2885 2 12.7581V5.75806C2 5.22762 2.21071 4.71892 2.58579 4.34384C2.96086 3.96877 3.46957 3.75806 4 3.75806H9.5C9.63261 3.75806 9.75979 3.81073 9.85355 3.9045C9.94732 3.99827 10 4.12545 10 4.25806C10 4.39067 9.94732 4.51784 9.85355 4.61161C9.75979 4.70538 9.63261 4.75806 9.5 4.75806H4Z" fill="#040510"/>
</svg>
