<svg width="60" height="61" viewBox="0 0 60 61" fill="none" xmlns="http://www.w3.org/2000/svg">
<path d="M27.9123 16.2507C27.7155 16.2803 27.5276 16.3144 27.3446 16.351C27.5316 16.3155 27.7198 16.2814 27.9123 16.2525L28.2863 16.2067C28.4078 16.1877 28.5312 16.1732 28.6557 16.1613C28.4085 16.1852 28.1608 16.2134 27.9123 16.2507Z" fill="#8250CA"/>
<path d="M42.7269 24.185C40.2638 18.9178 34.6832 15.5796 28.6619 16.1609L28.2863 16.2069C26.2769 16.5216 24.6964 17.792 24.1845 19.493C23.695 21.1195 24.2968 22.6686 25.1461 24.0501C24.4213 22.8333 24.3419 22.1229 26.2178 22.3182C32.219 22.943 46.4435 32.1325 42.7269 24.185Z" fill="#8250CA"/>
<path d="M27.9126 16.2526C20.5742 17.3551 17.2915 23.2912 16.3414 26.6714C15.6448 29.1501 16.4204 29.3002 18.5989 29.5537C21.4137 29.8813 26.6461 30.08 27.6295 29.0736C29.1527 27.5149 22.8974 23.7706 24.1848 19.4929C24.7329 17.6718 26.5056 16.3434 28.7184 16.1539L27.9126 16.2526Z" fill="#8250CA"/>
<path d="M32.0868 44.0684C32.2835 44.0388 32.4715 44.0047 32.6545 43.9681C32.4675 44.0036 32.2793 44.0377 32.0868 44.0666L31.7128 44.1124C31.5913 44.1314 31.4679 44.1459 31.3434 44.1579C31.5906 44.1339 31.8383 44.1057 32.0868 44.0684Z" fill="#8250CA"/>
<path d="M17.2723 36.1342C19.7354 41.4014 25.3159 44.7396 31.3373 44.1583L31.7129 44.1123C33.7223 43.7975 35.3028 42.5271 35.8147 40.8262C36.3042 39.1997 35.7023 37.6505 34.8531 36.2691C35.5779 37.4859 35.6573 38.1963 33.7814 38.001C27.7801 37.3761 13.5557 28.1867 17.2723 36.1342Z" fill="#8250CA"/>
<path d="M32.087 44.0669C39.4255 42.9644 42.7081 37.0283 43.6582 33.6481C44.3549 31.1694 43.5793 31.0193 41.4008 30.7658C38.586 30.4382 33.3536 30.2395 32.3702 31.2459C30.8469 32.8046 37.1023 36.5489 35.8149 40.8266C35.2668 42.6477 33.4941 43.9761 31.2813 44.1656L32.087 44.0669Z" fill="#8250CA"/>
<path d="M15.1703 15.7604C18.0855 12.8273 21.805 10.8246 25.8584 10.0055C29.9119 9.18637 34.1172 9.58762 37.9425 11.1585C41.7679 12.7294 45.0416 15.3994 47.3495 18.8308C49.6575 22.2622 50.8961 26.301 50.9087 30.4363C50.9213 34.5717 49.7073 38.6179 47.4203 42.0633C45.1333 45.5087 41.876 48.1986 38.0603 49.7928C34.2445 51.3869 30.0417 51.8138 25.9834 51.0194C21.925 50.225 18.1934 48.245 15.2603 45.3298C11.108 41.2027 8.77469 35.608 8.64193 29.7766L8.64218 26.9489" stroke="#8250CA" stroke-width="2" stroke-linecap="round" stroke-linejoin="round"/>
<path d="M4.53749 30.4976L8.63183 26.3782L12.7512 30.4725" stroke="#8250CA" stroke-width="2" stroke-linecap="round" stroke-linejoin="round"/>
</svg>
