<svg width="17" height="17" viewBox="0 0 17 17" fill="none" xmlns="http://www.w3.org/2000/svg">
<path d="M10.6333 2.45557C10.985 2.46058 11.3205 2.60435 11.5667 2.85557L14.1 5.3889C14.3512 5.63507 14.495 5.97054 14.5 6.32223V13.1222C14.5 13.4759 14.3595 13.815 14.1095 14.065C13.8594 14.3151 13.5203 14.4556 13.1667 14.4556H3.83333C3.47971 14.4556 3.14057 14.3151 2.89052 14.065C2.64048 13.815 2.5 13.4759 2.5 13.1222V3.7889C2.5 3.43528 2.64048 3.09614 2.89052 2.84609C3.14057 2.59604 3.47971 2.45557 3.83333 2.45557H10.6333Z" stroke="#F3F3F8" stroke-linecap="round" stroke-linejoin="round"/>
<path d="M11.8334 14.4555V9.78886C11.8334 9.61205 11.7632 9.44248 11.6382 9.31745C11.5131 9.19243 11.3436 9.12219 11.1667 9.12219H5.83341C5.6566 9.12219 5.48703 9.19243 5.36201 9.31745C5.23699 9.44248 5.16675 9.61205 5.16675 9.78886V14.4555" stroke="#F3F3F8" stroke-linecap="round" stroke-linejoin="round"/>
<path d="M5.16675 2.45557V5.12223C5.16675 5.29904 5.23699 5.46861 5.36201 5.59364C5.48703 5.71866 5.6566 5.7889 5.83341 5.7889H10.5001" stroke="#F3F3F8" stroke-linecap="round" stroke-linejoin="round"/>
</svg>
