<svg width="21" height="21" viewBox="0 0 21 21" fill="none" xmlns="http://www.w3.org/2000/svg">
<path d="M8.49996 11.5913L5.16663 8.25802L8.49996 4.92468" stroke="#040510" stroke-linecap="round" stroke-linejoin="round"/>
<path d="M5.16663 8.25806H12.1666C12.6481 8.25806 13.1249 8.3529 13.5698 8.53717C14.0147 8.72143 14.4189 8.99152 14.7594 9.332C15.0998 9.67248 15.3699 10.0767 15.5542 10.5216C15.7385 10.9664 15.8333 11.4432 15.8333 11.9247C15.8333 12.4062 15.7385 12.883 15.5542 13.3279C15.3699 13.7728 15.0998 14.177 14.7594 14.5174C14.4189 14.8579 14.0147 15.128 13.5698 15.3123C13.1249 15.4965 12.6481 15.5914 12.1666 15.5914H9.83329" stroke="#040510" stroke-linecap="round" stroke-linejoin="round"/>
</svg>
